<svg class="company-img img-fill" xmlns="http://www.w3.org/2000/svg" version="1.1" viewBox="0 0 485.33 461.63" style="fill: rgb(0, 0, 0);" role="img" aria-label="Elements Infographic Simple Icon">
 <g id="__id49_sx92pux8fp" style="fill: rgb(255, 255, 255);">
  <path d="m282.33 57.055c-0.27 21.984-14.31 45.175-37.97 47.065-23.45 1.88-40.48-19.651-42.86-41.19-2.46-22.352 9.83-46.66 32.73-52.215 23.02-5.5783 41.96 13.957 46.86 34.723 0.9 3.816 1.19 7.707 1.24 11.617 0.08 6.441 10.08 6.453 10 0-0.27-22.297-11.88-44.856-33.2-53.653-20.96-8.6442-43.04-0.0778-56.34 17.297-14.28 18.653-14.81 45.586-4.25 65.992 10.12 19.579 31.71 30.899 53.44 26.349 25.4-5.33 40.05-31.673 40.35-55.985 0.08-6.453-9.92-6.446-10 0" style="fill: inherit;"></path>
  <path d="m125.95 94.145c-0.26 21.985-14.31 45.175-37.966 47.065-23.453 1.88-40.48-19.65-42.855-41.19-2.465-22.352 9.828-46.661 32.726-52.211 23.015-5.582 41.965 13.953 46.865 34.718 0.9 3.817 1.19 7.707 1.23 11.618 0.08 6.445 10.08 6.455 10 0-0.27-22.297-11.88-44.856-33.2-53.653-20.953-8.644-43.035-0.074-56.336 17.297-14.281 18.652-14.805 45.591-4.254 65.991 10.125 19.58 31.715 30.9 53.442 26.34 25.398-5.32 40.058-31.66 40.348-55.975 0.08-6.454-9.92-6.446-10 0" style="fill: inherit;"></path>
  <path d="m27.84 235.27v143.74 77.78c0 6.45 10 6.45 10 0v-143.74-77.78c0-6.45-10-6.45-10 0" style="fill: inherit;"></path>
  <path d="m135.95 456.79v-136.47-116.53c-1.66 1.67-3.33 3.33-5 5h59.66c6.45 0 6.45-10 0-10h-59.66c-2.72 0-5 2.28-5 5v136.48 116.52c0 6.45 10 6.45 10 0" style="fill: inherit;"></path>
  <path d="m197.72 456.79v-126.86-159.24-6.52c0-2.73-2.28-5-5-5h-68.41-36.845c-18.063 0-35.5 4.35-50.813 14.12-17.984 11.47-31.148 30.05-35.09 51.09-2.5308 13.48-1.2261 28.07-1.2261 41.69 0.00004 21.42 0.00004 42.84 0.00004 64.25 0 2.73 2.2735 5 5 5h11.574c6.449 0 6.449-10 0-10h-11.574c1.664 1.67 3.332 3.34 5 5v-64.25c0-13.57-1.4024-28.23 1.375-41.61 4.543-21.88 20.715-39.08 40.582-48.35 12.324-5.74 25.547-6.94 38.918-6.94h39.059 62.45c-1.67-1.67-3.34-3.33-5-5v126.87 159.24 6.51c0 6.45 10 6.45 10 0" style="fill: inherit;"></path>
  <path d="m349.46 94.145c0.28 22.295 11.89 44.855 33.21 53.655 20.95 8.64 43.04 0.07 56.33-17.3 14.29-18.66 14.81-45.586 4.26-65.992-10.12-19.582-31.71-30.899-53.44-26.344-25.4 5.324-40.06 31.668-40.36 55.981-0.07 6.455 9.93 6.445 10 0 0.27-21.989 14.32-45.172 37.98-47.067 23.45-1.879 40.47 19.652 42.85 41.192 2.46 22.35-9.83 46.66-32.72 52.21-23.02 5.58-41.97-13.95-46.87-34.72-0.9-3.81-1.18-7.705-1.24-11.615-0.07-6.446-10.07-6.454-10 0" style="fill: inherit;"></path>
  <path d="m447.58 235.27v143.74 77.78c0 6.45 10 6.45 10 0v-143.74-77.78c0-6.45-10-6.45-10 0" style="fill: inherit;"></path>
  <path d="m359.46 456.79v-136.47-116.53c0-2.72-2.27-5-5-5h-61.76c-6.45 0-6.45 10 0 10h61.76c-1.66-1.67-3.33-3.33-5-5v136.48 116.52c0 6.45 10 6.45 10 0" style="fill: inherit;"></path>
  <path d="m297.7 456.79v-126.86-159.24-6.52c-1.66 1.67-3.33 3.33-5 5h68.41 36.84c18.24 0 35.35 4.92 50.12 15.79 16.25 11.95 26.41 31.2 27 51.31 0.35 11.79 0.02 23.63 0.02 35.43v58.62l5-5h-11.58c-6.45 0-6.45 10 0 10h11.58c2.72 0 5-2.27 5-5v-64.25c0-13.75 1.05-28.07-1.23-41.69-3.63-21.65-18.02-40.2-36.22-51.81-26-16.59-57.16-13.4-86.53-13.4h-68.41c-2.72 0-5 2.27-5 5v126.87 159.24 6.51c0 6.45 10 6.45 10 0" style="fill: inherit;"></path>
  <path d="m119.42 134.11h137.84 108.96c6.45 0 6.45-10 0-10h-137.84-108.96c-6.44 0-6.44 10 0 10" style="fill: inherit;"></path>
  <path d="m79.352 337.94v118.85c0 6.45 10 6.45 10 0v-118.85c0-6.45-10-6.45-10 0" style="fill: inherit;"></path>
  <path d="m236.77 310.48v142.91 3.4c0 6.45 10 6.45 10 0v-142.9-3.41c0-6.45-10-6.45-10 0" style="fill: inherit;"></path>
  <path d="m399.47 337.94v118.85c0 6.45 10 6.45 10 0v-118.85c0-6.45-10-6.45-10 0" style="fill: inherit;"></path>
 </g>
</svg>