<svg class="company-img img-fill" xmlns="http://www.w3.org/2000/svg" xmlns:xlink="http://www.w3.org/1999/xlink" preserveAspectRatio="xMidYMid meet" version="1.1" viewBox="105.4 96.7 214.3 231.8" zoomAndPan="magnify" style="fill: rgb(0, 0, 0);" role="img" aria-label="People Connection Wifi Internet Line and Fill">
 <g id="__id64_ssfkpgqw5i">
  <g id="__id65_ssfkpgqw5i"><path d="m317.24 325.98h-77.39s1.01-38.31 38.69-39c0 0 38.7-0.04 38.7 39" style="fill: rgb(255, 255, 255);"></path></g>
  <path d="m3172.4 992.16h-773.9s10.1 383.14 386.9 390.04c0 0 387 0.4 387-390.04z" stroke="#224c8d" stroke-miterlimit="10" stroke-width="50" transform="matrix(.1 0 0 -.1 0 425.2)" style="fill: none;"></path>
  <g id="__id66_ssfkpgqw5i"><path d="m257.94 259.15c0-11.38 9.22-20.6 20.6-20.6s20.61 9.22 20.61 20.6-9.23 20.6-20.61 20.6-20.6-9.22-20.6-20.6" style="fill: rgb(255, 255, 255);"></path></g>
  <path d="m2579.4 1660.5c0 113.8 92.2 206 206 206s206.1-92.2 206.1-206-92.3-206-206.1-206-206 92.2-206 206z" stroke="#224c8d" stroke-miterlimit="10" stroke-width="50" transform="matrix(.1 0 0 -.1 0 425.2)" style="fill: none;"></path>
  <g id="__id67_ssfkpgqw5i"><path d="m185.35 325.98h-77.39s1.01-38.31 38.7-39c0 0 38.69-0.04 38.69 39" style="fill: rgb(255, 255, 255);"></path></g>
  <path d="m1853.5 992.16h-773.9s10.1 383.14 387 390.04c0 0 386.9 0.4 386.9-390.04z" stroke="#224c8d" stroke-miterlimit="10" stroke-width="50" transform="matrix(.1 0 0 -.1 0 425.2)" style="fill: none;"></path>
  <g id="__id68_ssfkpgqw5i"><path d="m126.05 259.15c0-11.38 9.23-20.6 20.61-20.6s20.6 9.22 20.6 20.6-9.22 20.6-20.6 20.6-20.61-9.22-20.61-20.6" style="fill: rgb(255, 255, 255);"></path></g>
  <path d="m1260.5 1660.5c0 113.8 92.3 206 206.1 206s206-92.2 206-206-92.2-206-206-206-206.1 92.2-206.1 206z" stroke="#224c8d" stroke-miterlimit="10" stroke-width="50" transform="matrix(.1 0 0 -.1 0 425.2)" style="fill: none;"></path>
  <path d="m1428.2 1895.8v379.1h1374.2v-379.1" stroke="#224c8d" stroke-linejoin="round" stroke-miterlimit="10" stroke-width="50" transform="matrix(.1 0 0 -.1 0 425.2)" style="fill: none;"></path>
  <path d="m2115.4 2274.9v458" stroke="#224c8d" stroke-linejoin="round" stroke-miterlimit="10" stroke-width="50" transform="matrix(.1 0 0 -.1 0 425.2)" style="fill: none;"></path>
  <g id="__id69_ssfkpgqw5i"><path d="m173.36 138.13c0 21.5 17.42 38.92 38.91 38.92 21.5 0 38.92-17.42 38.92-38.92 0-21.49-17.42-38.915-38.92-38.915-21.49 0-38.91 17.425-38.91 38.915" style="fill: rgb(158, 158, 168);"></path></g>
  <path d="m1733.6 2870.7c0-215 174.2-389.2 389.1-389.2 215 0 389.2 174.2 389.2 389.2 0 214.9-174.2 389.2-389.2 389.2-214.9 0-389.1-174.3-389.1-389.2z" stroke="#224c8d" stroke-linejoin="round" stroke-miterlimit="10" stroke-width="50" transform="matrix(.1 0 0 -.1 0 425.2)" style="fill: none;"></path>
  <g id="__id70_ssfkpgqw5i"><path d="m219.54 156.28c0 4.19-3.4 7.59-7.59 7.59s-7.59-3.4-7.59-7.59 3.4-7.6 7.59-7.6 7.59 3.41 7.59 7.6" style="fill: rgb(158, 158, 168);"></path></g>
  <path d="m2195.4 2689.2c0-41.9-34-75.9-75.9-75.9s-75.9 34-75.9 75.9 34 76 75.9 76 75.9-34.1 75.9-76z" stroke="#224c8d" stroke-linejoin="round" stroke-miterlimit="10" stroke-width="50" transform="matrix(.1 0 0 -.1 0 425.2)" style="fill: none;"></path>
  <path d="m1975 2800.9c36.1 42.6 88.7 67 144.5 67s108.6-24.4 144.7-67.1" stroke="#224c8d" stroke-linecap="round" stroke-linejoin="round" stroke-miterlimit="10" stroke-width="50" transform="matrix(.1 0 0 -.1 0 425.2)" style="fill: none;"></path>
  <path d="m1901 2887.4c53.5 63.1 131.6 99.2 214.2 99.2 82.8 0 160.9-36.2 214.4-99.4" stroke="#224c8d" stroke-linecap="round" stroke-linejoin="round" stroke-miterlimit="10" stroke-width="50" transform="matrix(.1 0 0 -.1 0 425.2)" style="fill: none;"></path>
  <path d="m1829.6 2969.8c71.3 84.1 175.4 132.4 285.6 132.4 110.3 0 214.6-48.4 285.9-132.7" stroke="#224c8d" stroke-linecap="round" stroke-linejoin="round" stroke-miterlimit="10" stroke-width="50" transform="matrix(.1 0 0 -.1 0 425.2)" style="fill: none;"></path>
 </g>
</svg>