<svg class="company-img img-fill" xmlns="http://www.w3.org/2000/svg" xmlns:xlink="http://www.w3.org/1999/xlink" preserveAspectRatio="xMidYMid meet" version="1.0" viewBox="129.6 114.1 254.3 255.4" zoomAndPan="magnify" style="fill: rgb(0, 0, 0);" role="img" aria-label="24/7 Service Icon"><g id="__id54_szv9sap2f" style="fill: rgb(251, 253, 254);"><path d="M 293.980469 349.519531 L 294.023438 349.519531 Z M 160.574219 201.910156 C 158.976562 201.910156 157.472656 202.625 155.855469 204.046875 C 155.6875 204.207031 153.550781 206.230469 151.960938 207.742188 L 150.160156 209.449219 C 142.050781 217.027344 138.371094 230.722656 140.796875 244.324219 C 141.589844 248.742188 142.855469 253.316406 144.570312 257.917969 C 153.242188 281.207031 169.714844 301.46875 182.007812 314.363281 C 194.242188 327.34375 213.597656 344.882812 236.382812 354.785156 C 240.898438 356.746094 245.398438 358.257812 249.757812 359.277344 C 263.214844 362.433594 277.078125 359.488281 285.09375 351.785156 L 286.171875 350.765625 C 287.699219 349.316406 290.417969 346.746094 290.816406 346.363281 C 295.609375 341.429688 293.113281 337.226562 283.207031 327.144531 L 280.667969 324.542969 C 274.300781 317.9375 263.65625 306.894531 254.726562 307.9375 C 252.359375 308.214844 249.820312 309.988281 247.128906 311.867188 C 244.386719 313.78125 241.550781 315.761719 238.113281 316.851562 C 228.925781 319.753906 219.605469 317.851562 211.875 311.476562 C 207.320312 307.726562 202.671875 303.320312 198.433594 298.742188 C 194.167969 294.347656 190.019531 289.472656 186.507812 284.710938 C 180.554688 276.648438 179.144531 267.238281 182.539062 258.222656 C 183.8125 254.851562 185.941406 252.121094 188 249.488281 C 190.019531 246.902344 191.925781 244.460938 192.332031 242.109375 C 193.863281 233.257812 183.386719 222.019531 177.128906 215.304688 L 174.671875 212.640625 C 168.085938 205.4375 164.109375 201.910156 160.574219 201.910156 Z M 260.621094 369.457031 C 256.046875 369.457031 251.640625 368.902344 247.71875 367.984375 C 242.839844 366.84375 237.828125 365.160156 232.820312 362.984375 C 208.640625 352.476562 188.3125 334.089844 175.519531 320.515625 C 162.664062 307.03125 145.390625 285.746094 136.191406 261.039062 C 134.289062 255.9375 132.878906 250.84375 131.996094 245.894531 C 129.648438 232.757812 131.589844 214.5625 144.066406 202.90625 L 145.804688 201.257812 C 147.519531 199.632812 149.839844 197.429688 149.941406 197.339844 C 162.625 186.207031 173.84375 198.480469 181.273438 206.605469 L 183.667969 209.207031 C 191.058594 217.136719 203.429688 230.40625 201.144531 243.632812 C 200.355469 248.191406 197.535156 251.804688 195.046875 254.992188 C 193.324219 257.195312 191.699219 259.277344 190.90625 261.371094 C 188.585938 267.546875 189.550781 273.78125 193.699219 279.402344 C 196.980469 283.84375 200.859375 288.40625 204.917969 292.59375 C 208.964844 296.953125 213.3125 301.070312 217.5625 304.574219 C 222.953125 309.023438 229.128906 310.316406 235.414062 308.324219 C 237.550781 307.648438 239.71875 306.136719 242.011719 304.535156 C 245.324219 302.222656 249.082031 299.597656 253.675781 299.054688 C 267.011719 297.492188 279.585938 310.539062 287.105469 318.339844 L 289.582031 320.878906 C 297.296875 328.726562 308.953125 340.585938 297.191406 352.636719 C 297.1875 352.636719 297.1875 352.636719 297.1875 352.636719 C 297.1875 352.640625 297.183594 352.644531 297.175781 352.648438 C 296.945312 352.875 293.96875 355.695312 292.316406 357.261719 L 291.277344 358.242188 C 282.695312 366.496094 271.199219 369.457031 260.621094 369.457031" style="fill: inherit;"></path><path d="M 219.996094 245.894531 C 219.972656 244.539062 219.949219 243.394531 219.929688 242.464844 C 219.90625 241.535156 219.894531 240.546875 219.894531 239.496094 C 219.894531 238.445312 219.90625 237.046875 219.929688 235.296875 C 220.039062 231.6875 220.914062 228.636719 222.554688 226.144531 C 224.195312 223.652344 226.609375 221.539062 229.804688 219.8125 L 234.167969 217.449219 C 235.699219 216.617188 236.679688 215.617188 237.105469 214.449219 C 237.527344 213.277344 237.773438 212.179688 237.84375 211.152344 C 237.929688 209.96875 237.976562 208.6875 237.988281 207.3125 C 238 205.933594 237.972656 204.644531 237.90625 203.441406 C 237.753906 201.078125 236.167969 199.898438 233.148438 199.898438 C 231.621094 199.898438 230.515625 200.203125 229.839844 200.816406 C 229.160156 201.429688 228.796875 202.226562 228.753906 203.210938 C 228.710938 204.917969 228.675781 206.503906 228.65625 207.96875 C 228.632812 209.433594 228.675781 211.03125 228.785156 212.757812 L 220.058594 212.757812 C 219.996094 211.292969 219.945312 209.910156 219.910156 208.609375 C 219.878906 207.308594 219.886719 206.089844 219.929688 204.949219 C 220.105469 200.597656 221.222656 197.480469 223.292969 195.601562 C 225.359375 193.722656 228.644531 192.78125 233.148438 192.78125 C 237.917969 192.78125 241.324219 193.722656 243.371094 195.601562 C 245.414062 197.480469 246.523438 200.597656 246.699219 204.949219 C 246.785156 207.136719 246.785156 209.203125 246.699219 211.152344 C 246.570312 214.652344 245.671875 217.46875 244.011719 219.597656 C 242.347656 221.730469 240.183594 223.53125 237.511719 224.996094 L 232.5625 227.6875 C 231.160156 228.453125 230.191406 229.59375 229.65625 231.113281 C 229.117188 232.632812 228.851562 234.027344 228.851562 235.296875 L 228.851562 238.25 L 246.074219 238.25 L 246.074219 245.894531 L 219.996094 245.894531" style="fill: inherit;"></path><path d="M 257.625 224.503906 L 265.039062 224.503906 L 266.1875 211.972656 L 267.203125 201.046875 L 265.367188 201.046875 L 261.957031 211.972656 Z M 265.039062 245.894531 L 265.039062 232.082031 L 249.160156 232.082031 L 249.160156 224.898438 L 261.5625 193.402344 L 273.308594 193.402344 L 273.308594 224.503906 L 279.082031 224.503906 L 279.082031 232.082031 L 273.308594 232.082031 L 273.308594 245.894531 L 265.039062 245.894531" style="fill: inherit;"></path><path d="M 313.691406 245.894531 L 328.75 201.046875 L 309.984375 201.046875 L 309.984375 193.402344 L 337.539062 193.402344 L 337.539062 201.242188 L 322.84375 245.894531 L 313.691406 245.894531" style="fill: inherit;"></path><path d="M 290.769531 251.777344 L 306.664062 189.511719 L 298.136719 189.511719 L 282.238281 251.777344 L 290.769531 251.777344" style="fill: inherit;"></path><path d="M 176.121094 187.636719 C 175.539062 187.636719 174.949219 187.519531 174.378906 187.28125 C 172.105469 186.320312 171.042969 183.695312 172.007812 181.421875 C 173.011719 179.050781 174.089844 176.726562 175.253906 174.445312 C 176.367188 172.246094 179.054688 171.363281 181.265625 172.488281 C 183.464844 173.609375 184.339844 176.300781 183.21875 178.503906 C 182.15625 180.59375 181.160156 182.730469 180.238281 184.910156 C 179.519531 186.613281 177.863281 187.636719 176.121094 187.636719" style="fill: inherit;"></path><path d="M 186.613281 168.582031 C 185.734375 168.582031 184.847656 168.324219 184.070312 167.785156 C 182.039062 166.378906 181.539062 163.59375 182.945312 161.5625 C 184.574219 159.214844 186.324219 156.894531 188.144531 154.664062 C 189.707031 152.75 192.519531 152.464844 194.433594 154.023438 C 196.347656 155.585938 196.632812 158.398438 195.070312 160.3125 C 193.398438 162.363281 191.789062 164.503906 190.292969 166.660156 C 189.425781 167.910156 188.03125 168.582031 186.613281 168.582031" style="fill: inherit;"></path><path d="M 203.308594 149.753906 C 202.074219 149.753906 200.851562 149.246094 199.964844 148.253906 C 198.324219 146.40625 198.488281 143.582031 200.335938 141.941406 C 202.808594 139.738281 205.40625 137.628906 208.0625 135.664062 C 210.042969 134.191406 212.839844 134.613281 214.3125 136.597656 C 215.78125 138.582031 215.363281 141.382812 213.378906 142.851562 C 210.941406 144.652344 208.554688 146.597656 206.277344 148.621094 C 205.425781 149.378906 204.363281 149.753906 203.308594 149.753906" style="fill: inherit;"></path><path d="M 308.664062 328.746094 C 307.464844 328.746094 306.292969 328.265625 305.4375 327.367188 C 304.222656 326.101562 303.859375 324.246094 304.511719 322.617188 L 311.914062 304.085938 C 312.828125 301.789062 315.4375 300.679688 317.726562 301.59375 C 320.019531 302.507812 321.132812 305.109375 320.21875 307.402344 L 316.71875 316.160156 C 351.96875 299.613281 375.011719 263.921875 375.011719 224.367188 C 375.011719 168.476562 329.535156 123 273.640625 123 C 257.675781 123 242.398438 126.605469 228.238281 133.710938 C 226.023438 134.820312 223.339844 133.925781 222.234375 131.722656 C 221.128906 129.515625 222.019531 126.828125 224.226562 125.722656 C 239.644531 117.980469 256.269531 114.058594 273.640625 114.058594 C 334.46875 114.058594 383.953125 163.542969 383.953125 224.367188 C 383.953125 271.175781 354.289062 313.019531 310.140625 328.496094 C 309.660156 328.664062 309.160156 328.746094 308.664062 328.746094" style="fill: inherit;"></path><path d="M 327.390625 334.480469 C 326.953125 334.480469 326.515625 334.414062 326.078125 334.28125 L 307.355469 328.550781 C 304.992188 327.828125 303.667969 325.328125 304.390625 322.96875 C 305.113281 320.609375 307.628906 319.28125 309.972656 320 L 328.695312 325.730469 C 331.058594 326.453125 332.382812 328.953125 331.660156 331.3125 C 331.070312 333.238281 329.300781 334.480469 327.390625 334.480469" style="fill: inherit;"></path></g></svg>
					