<svg class="network-security" xmlns="http://www.w3.org/2000/svg" xmlns:xlink="http://www.w3.org/1999/xlink" preserveAspectRatio="xMidYMid meet" version="1.0" viewBox="9.1 6.1 212.1 143.1" zoomAndPan="magnify" style="fill: rgb(0, 0, 0);" role="img" aria-label="Landline Telephone Vector "><g id="__id180_s7twmfoy7"><path d="m132.08 26.793c-33.677 0-64.327 11.29-87.183 29.733-11 3.5876-18.882 13.229-18.882 24.552 0 4.1839 1.0816 8.1238 2.9934 11.628h50.744c1.9119-3.5045 3.0222-7.4444 3.0222-11.628 0-6.5126-2.5991-12.471-6.9079-17.039 16.696-8.6434 35.855-13.557 56.213-13.557s39.517 4.9134 56.213 13.557c-4.3088 4.5682-6.9079 10.527-6.9079 17.039 1e-5 4.1839 1.0816 8.1238 2.9934 11.628h50.744c1.9119-3.5045 3.0222-7.4444 3.0222-11.628 1e-5 -11.323-7.882-20.964-18.882-24.552-22.857-18.443-53.507-29.733-87.183-29.733zm0 26.365c-26.835 0-48.614 23.031-48.614 51.406 0 2.3739 0.16545 4.7055 0.46053 6.9942-4.7279 2.7287-7.9153 7.8279-7.9153 13.701v28.84c0 8.7625 7.068 15.831 15.831 15.831h80.477c8.7625 0 15.831-7.068 15.831-15.831v-28.84c0-5.8676-3.1943-10.941-7.9153-13.672 0.29766-2.2984 0.46053-4.6386 0.46053-7.023 0-28.375-21.78-51.406-48.614-51.406zm0 15.341c13.995 1e-5 25.358 10.519 25.358 23.487s-11.363 23.516-25.358 23.516-25.358-10.548-25.358-23.516 11.363-23.487 25.358-23.487z" transform="translate(-16.921 -20.658)" style="fill: rgb(119, 131, 141);"></path></g></svg>