<svg class="network-security" xmlns="http://www.w3.org/2000/svg" xmlns:xlink="http://www.w3.org/1999/xlink" preserveAspectRatio="xMidYMid meet" version="1.0" viewBox="1.6 -0.1 77.9 59.2" zoomAndPan="magnify" style="fill: rgb(255, 255, 255);" role="img" aria-label="Wireless Router Illustration"><g><g id="__id169_srujm2psve"><path d="m89.702-6.4583h-0.07482c-0.57431-0.16773-0.8426 0.40334-1.2159 0.72098-0.53769 13.64-1.157 26.19-0.72098 40.375 1.3448 0.02081 2.1515 0.0039 3.4536-0.08248 0.56211-14.155-0.5242-26.501-0.72099-40.292l-0.72098-0.72098" transform="translate(-32.896 6.489)" style="fill: inherit;"></path></g><g id="__id170_srujm2psve"><path d="m55.102-6.4583h-0.07482c-0.57431-0.16773-0.8426 0.40334-1.2159 0.72098-0.53769 13.64-1.157 26.19-0.72098 40.375 1.3448 0.02081 2.1515 0.0039 3.4536-0.08248 0.56211-14.155-0.5242-26.501-0.72099-40.292l-0.72098-0.72098" transform="translate(-32.896 6.489)" style="fill: inherit;"></path></g><g id="__id171_srujm2psve"><path d="m35.896 40.807 76.009 1.2004m-70.79-15.224h62.323l8.6436 15.215-1.4602 9.3973-74.311-0.40015c-1.3739-9.4864 0.89423-15.855 4.8045-24.212z" transform="translate(-32.896 6.489)" style="fill: rgb(236, 234, 247);"></path></g><g id="__id172_srujm2psve"><path d="m67.675 49.153h36.051l-0.0749-1.6886c-6.3832 1.0426-24.922 1.4257-35.976 1.6886z" transform="translate(-32.896 6.489)" style="fill: rgb(170, 204, 238);"></path></g><path d="m35.897 38.209 5.3172-11.426h62.223l7.6932 13.014c0.18438 1.5339-1.1135 2.3006-3.626 2.2101h-69.81c-3.0925-0.61234-1.8484-2.7868-1.5974-4.4173m-0.40015 2.1007v8.003c0.02517 2.2276 0.45924 3.8009 1.8136 3.9018h70.809c3.0949 0.02134 2.5936-0.95406 2.9046-2.6014v-8.6031" stroke="#000" stroke-width="2" transform="translate(-32.896 6.489)" style="fill: none;"></path><g id="__id173_srujm2psve"><path d="m43.888 29.887c19.052-0.78624 38.105-0.81424 57.157 0" stroke="#666" stroke-width=".963" transform="translate(-32.896 6.489)" style="fill: rgb(102, 102, 102);"></path></g><g id="__id174_srujm2psve"><path d="m40.831 37.991c21.674-1.1109 43.158-1.2868 64.3 0" stroke="#666" stroke-width="1.022" transform="translate(-32.896 6.489)" style="fill: rgb(102, 102, 102);"></path></g></g></svg>