<svg class="network-security" xmlns="http://www.w3.org/2000/svg" xmlns:xlink="http://www.w3.org/1999/xlink" preserveAspectRatio="xMidYMid meet" version="1.0" viewBox="0.9 0.5 11.0 12.0" zoomAndPan="magnify" style="fill: rgb(119, 131, 141);" role="img" aria-label="Power Button Illustration"><g id="__id177_scqr73he76"><path d="m6.369 12.494c-3.033 0-5.5-2.477-5.5-5.521 0-1.689 0.756-3.265 2.073-4.32 0.147-0.118 0.363-0.094 0.48 0.054 0.119 0.148 0.095 0.365-0.053 0.483-1.154 0.925-1.815 2.304-1.815 3.784 0 2.665 2.16 4.834 4.815 4.834s4.815-2.17 4.815-4.834c0-1.472-0.655-2.845-1.796-3.768-0.147-0.119-0.171-0.335-0.052-0.483s0.334-0.17 0.48-0.052c1.305 1.055 2.051 2.623 2.051 4.303 3e-3 3.044-2.465 5.52-5.498 5.52z" style="fill: inherit;"></path></g><g id="__id178_scqr73he76"><path d="m6.369 7h-3e-3c-0.189 0-0.34-0.393-0.339-0.582l0.055-5.52c2e-3 -0.189 0.183-0.369 0.346-0.398 0.189 2e-3 0.341 0.128 0.339 0.317l-0.056 5.622c-2e-3 0.189-0.154 0.561-0.342 0.561z" style="fill: inherit;"></path></g></svg>