<svg class="img-fill product-img" xmlns="http://www.w3.org/2000/svg" version="1.1" viewBox="0 0 489.18 467.98" style="fill: rgb(0, 0, 0);" role="img" aria-label="Snapchat SEO Simple Icon">
 <g id="__id50_s0rjsj4jc" style="fill: rgb(242, 237, 219);">
  <path d="m220.51 40.68c0.28-12.95 10.2-20.684 22.44-20.684h24.17 91.08 80.06c6.25 0 12.56-0.558 18.53 1.563 9 3.199 12.19 12.976 12.19 21.605v130.55 186.69 52.3c0 5.56 0.07 10.66-2.74 15.8-4.86 8.93-13.61 10.25-22.64 10.25h-166.89-29.74c-8.77 0-16.02-0.65-22.34-7.99-4.28-4.98-4.12-11.55-4.12-17.67v-20.71-173.72-143.94-4.724c0-12.894-20-12.894-20 0v113.77 185.59 46.75c0 14.93 6.34 27.84 18.71 36.39 8.6 5.94 18.59 6.25 28.52 6.25h168.85 27.68c12.84 0 24.72-3.1 33.87-12.86 12.7-13.55 10.84-31.32 10.84-48.24v-164.78-168.26c0-14.45 1.7-29.985-4.84-43.313-7.08-14.43-22.49-21.301-37.85-21.301-8.21 0.0000938-16.42 0.0000938-24.63 0.0000938h-170.9-10.26c-22.39 0-39.51 18.859-39.99 40.684-0.28 12.906 19.72 12.879 20 0" style="fill: inherit;"></path>
  <path d="m168.27 436.16c-10.95 2.03-21.91 4.06-32.86 6.08-10.61 1.96-21.67 5.17-32.45 5.83-11.335 0.68-17.886-8.11-19.749-18.19-1.035-5.59-2.066-11.17-3.098-16.75-10.172-54.97-20.34-109.93-30.508-164.9-9.328-50.43-18.656-100.85-27.984-151.28-0.559-3.024-1.121-6.052-1.68-9.079-1.519-8.219 4.071-16.961 11.747-19.801 2.636-0.972 5.574-1.343 8.335-1.855 27.086-5.012 54.176-10.02 81.267-15.031 16.55-3.063 33.1-6.125 49.65-9.188 5.37-0.992 8.34-7.391 6.99-12.301-1.54-5.586-6.95-7.972-12.3-6.984-44.91 8.309-89.818 16.613-134.72 24.922-21.164 3.914-34.058 24.984-30.242 45.609 0.6211 3.363 1.2422 6.723 1.8632 10.078 3.7696 20.38 7.5348 40.74 11.305 61.11 11.508 62.22 23.019 124.44 34.531 186.66 4.238 22.93 8.481 45.85 12.723 68.77 0.972 5.28 1.949 10.56 2.926 15.84 2.785 15.06 13.382 26.92 28.195 31.13 7.41 2.1 14.779 0.94 22.149-0.42 7.17-1.33 14.34-2.66 21.51-3.98 12.57-2.33 25.15-4.66 37.72-6.98 5.36-0.99 8.33-7.39 6.98-12.3-1.53-5.59-6.95-7.97-12.3-6.99" style="fill: inherit;"></path>
 </g>
</svg>