<svg class="img-fill product-img" version="1.1" xmlns="http://www.w3.org/2000/svg" xmlns:xlink="http://www.w3.org/1999/xlink" x="0px" y="0px" viewBox="0 0 488.318 488.316" style="fill: rgb(0, 0, 0);" xml:space="preserve" role="img" aria-label="Smile Face">
<g id="__id52_s85omyhruo">
	<path style="fill: rgb(242, 237, 219);" d="M244.159,488.316C109.529,488.316,0,378.783,0,244.159C0,109.532,109.529,0,244.159,0   c134.627,0,244.159,109.532,244.159,244.159C488.318,378.783,378.786,488.316,244.159,488.316z M244.159,31.709   c-117.147,0-212.45,95.306-212.45,212.45c0,117.147,95.303,212.448,212.45,212.448c117.148,0,212.45-95.301,212.45-212.448   C456.609,127.016,361.309,31.709,244.159,31.709z"></path>
	<circle style="fill: rgb(242, 237, 219);" cx="172.415" cy="164.887" r="25.367"></circle>
	<circle style="fill: rgb(242, 237, 219);" cx="311.938" cy="164.887" r="25.367"></circle>
	<path style="fill: rgb(242, 237, 219);" d="M244.159,396.707c-63.827,0-119.494-40.898-138.52-101.777c-2.087-6.689,1.638-13.8,8.323-15.893   c6.705-2.081,13.802,1.635,15.892,8.322c15.697,50.228,61.631,83.979,114.304,83.979c52.673,0,98.606-33.752,114.302-83.979   c2.093-6.688,9.215-10.403,15.891-8.322c6.689,2.093,10.417,9.202,8.324,15.893C363.649,355.807,307.986,396.707,244.159,396.707z"></path>
</g>
</svg>