<svg class="img-fill product-img" xmlns="http://www.w3.org/2000/svg" xmlns:xlink="http://www.w3.org/1999/xlink" enable-background="new 0 0 411 500" preserveAspectRatio="xMidYMid meet" version="1.0" viewBox="-40.6 -33.9 478.4 567.4" zoomAndPan="magnify" style="fill: rgb(0, 0, 0);" role="img" aria-label="Crescent Symbol Neon Illustration"><filter id="__id38_s5a12k4acy" xlink:actuate="onLoad" xlink:show="other" xlink:type="simple" xmlns:xlink="http://www.w3.org/1999/xlink"><feGaussianBlur stdDeviation="7"></feGaussianBlur></filter><g id="__id39_s5a12k4acy"><path d="M231.4,486.2c-83-4.8-157.2-46.1-193.5-107.7 c-8.6-14.6-15.3-30.7-19.9-47.9c-1-3.7,1.2-7.5,4.8-8.5c0.6-0.2,1.2-0.2,1.8-0.2c3.1,0,5.8,2.1,6.6,5.1 c4.2,15.9,10.5,30.8,18.5,44.4c34.1,57.7,104,96.4,182.5,100.9c1.9,0.1,3.5,1,4.8,2.3c1.2,1.4,1.9,3.2,1.7,5 c-0.3,3.6-3.2,6.4-6.8,6.6l0,0L231.4,486.2z M264.2,486.1c-3.6,0-6.6-2.8-6.9-6.4c-0.1-3.9,2.7-7.1,6.4-7.3 c33.7-2,66.1-10,96.6-23.7c-90.3-2.5-172.1-51-214.9-127.8c-40.3-72.4-41.3-161.1-2.6-237.4c1.3-2.3,3.6-3.7,6.2-3.7 c1.1,0,2.2,0.3,3.1,0.7c3.4,1.8,4.7,5.9,3,9.3c-36.6,72.2-35.7,156.1,2.4,224.4C199.1,388.7,279.8,435,368.1,435 c7.1,0,14.4-0.3,21.7-0.9c0.2,0,0.4,0,0.6,0c3,0,5.7,1.9,6.6,4.8c1,3.1-0.3,6.5-3.1,8.1c-40.3,23.4-83.8,36.5-129.3,39.1h-0.1 H264.2z M19,307.2c-3.5,0-6.4-2.6-6.8-6.1C-0.7,197.6,57.9,65.7,194.8,13.8c0.8-0.3,1.6-0.4,2.4-0.4c2.4,0,4.5,1.2,5.8,3.1 c1.8,2.8,1.3,6.4-1,8.6c-9.4,9.3-18.2,19.5-26.2,30.4c-1.3,1.8-3.4,2.9-5.6,2.9c-1.4,0-2.8-0.5-4-1.3c-3.1-2.3-3.8-6.5-1.5-9.6 c2.1-2.9,4.2-5.7,6.3-8.3C56.3,97.4,15.2,214,25.9,299.6c0.4,3.8-2.3,7.2-6,7.6h-0.1H19z" filter="url(#__id38_s5a12k4acy)" style="fill: rgb(242, 237, 219);"></path></g><g id="__id40_s5a12k4acy"><path d="M19,305.2c-2.4,0-4.5-1.8-4.8-4.3C1.4,198.2,59.6,67.2,195.5,15.7c2.2-0.8,4.6,0,5.8,1.9s1,4.5-0.7,6.1 c-9.6,9.5-18.5,19.9-26.4,30.7c-1.6,2.2-4.6,2.7-6.8,1.1c-2.2-1.6-2.7-4.6-1.1-6.8c3.8-5.2,7.8-10.2,11.9-15.2 C61.9,88.1,12.2,206.1,23.9,299.8c0.3,2.7-1.6,5.1-4.2,5.4C19.4,305.2,19.2,305.2,19,305.2z M236.7,479.5c0.2-2.7-1.9-5-4.6-5.2 C152.9,469.7,82.4,430.6,48,372.4c-8.1-13.7-14.4-28.8-18.7-44.9c-0.7-2.6-3.4-4.1-6-3.4s-4.1,3.4-3.4,6 c4.6,17,11.2,32.9,19.7,47.4c36,61,109.6,101.9,191.9,106.7c0.1,0,0.2,0,0.3,0C234.4,484.1,236.5,482.1,236.7,479.5z M264.4,484.1 c45.3-2.6,88.5-15.7,128.5-38.9c2-1.1,2.9-3.5,2.2-5.7c-0.7-2.2-2.8-3.6-5.1-3.4c-7.4,0.6-14.7,0.9-21.9,0.9 c-88.5,0-170.2-46.3-212.4-121.9c-38.4-68.9-39.3-153.5-2.4-226.3c1.2-2.4,0.3-5.3-2.1-6.6c-2.4-1.2-5.3-0.3-6.6,2.1 c-38.4,75.7-37.4,163.7,2.6,235.5c43.9,78.8,128.9,127,220.9,126.9c0.3,0,0.7,0,1,0c-33.2,16.2-68.6,25.4-105.2,27.6 c-2.7,0.2-4.7,2.5-4.6,5.2c0.2,2.6,2.3,4.6,4.9,4.6C264.2,484.1,264.3,484.1,264.4,484.1z" style="fill: rgb(242, 237, 219);"></path></g></svg>