<svg class="network-security" xmlns="http://www.w3.org/2000/svg" xmlns:xlink="http://www.w3.org/1999/xlink" preserveAspectRatio="xMidYMid meet" version="1.1" viewBox="113.4 84.8 198.4 255.5" zoomAndPan="magnify" style="fill: rgb(0, 0, 0);" role="img" aria-label="Paper Document School Education Learning Line and Fill">
 <g id="__id127_sc2rlpfpp">
  <g id="__id128_sc2rlpfpp"><path d="m299.96 315.79h-154.36c-5.16 0-9.34-4.19-9.34-9.35v-209.73c0-5.159 4.18-9.347 9.34-9.347h154.36c5.16 0 9.34 4.188 9.34 9.348v209.73c0 5.16-4.18 9.35-9.34 9.35" style="fill: rgb(0, 0, 0);"></path></g>
  <g id="__id129_sc2rlpfpp"><path d="m299.96 315.79v-2.55h-154.36c-1.89 0-3.57-0.76-4.81-1.99-1.24-1.24-1.99-2.93-1.99-4.81v-209.73c0-1.886 0.75-3.573 1.99-4.812 1.24-1.238 2.92-1.992 4.81-1.996h154.36c1.88 0.004 3.57 0.758 4.81 1.996 1.23 1.239 1.99 2.926 1.99 4.813v209.73c0 1.88-0.76 3.57-1.99 4.81-1.24 1.23-2.93 1.99-4.81 1.99v5.08c3.27 0 6.26-1.33 8.4-3.48 2.15-2.14 3.48-5.13 3.48-8.4v-209.73c0-3.272-1.33-6.261-3.48-8.405-2.14-2.145-5.13-3.481-8.4-3.481h-154.36c-3.27 0-6.26 1.336-8.4 3.481-2.15 2.144-3.49 5.133-3.48 8.406v209.73c-0.01 3.27 1.33 6.26 3.48 8.4 2.14 2.15 5.13 3.48 8.4 3.48h154.36v-2.53" style="fill: rgb(41, 38, 38);"></path></g>
  <g id="__id130_sc2rlpfpp"><path d="m280.61 337.84h-156.49c-4.54 0-8.22-3.69-8.22-8.23v-212.18c0-4.54 3.68-8.22 8.22-8.22h133.27l31.45 41.03v179.37c0 4.54-3.69 8.23-8.23 8.23" style="fill: rgb(255, 255, 255);"></path></g>
  <g id="__id131_sc2rlpfpp"><path d="m280.61 337.84v-2.5h-156.49c-1.59-0.01-3-0.64-4.05-1.68-1.03-1.05-1.67-2.46-1.67-4.05v-212.18c0-1.59 0.64-3 1.67-4.05 1.05-1.04 2.46-1.67 4.05-1.67h132.04l30.18 39.38v178.52c-0.01 1.59-0.64 3-1.68 4.05-1.05 1.04-2.46 1.67-4.05 1.68v5c2.95 0 5.65-1.21 7.58-3.14 1.94-1.94 3.15-4.63 3.15-7.59v-179.37c0-0.54-0.19-1.08-0.52-1.52l-31.44-41.03c-0.47-0.62-1.21-0.98-1.99-0.98h-133.27c-2.95 0-5.65 1.2-7.58 3.14-1.94 1.93-3.14 4.63-3.14 7.58v212.18c0 2.96 1.2 5.65 3.14 7.59 1.93 1.93 4.63 3.14 7.58 3.14h156.49v-2.5" style="fill: rgb(41, 38, 38);"></path></g>
  <g id="__id132_sc2rlpfpp"><path d="m280.61 337.84v-2.5h-156.49c-1.59-0.01-3-0.64-4.05-1.68-1.03-1.05-1.67-2.46-1.67-4.05v-212.18c0-1.59 0.64-3 1.67-4.05 1.05-1.04 2.46-1.67 4.05-1.67h18.83c-4.9 48.1 0.04 98.48 27.4 139.5 25.27 37.87 65.71 64.88 110.28 74.03 1.9 0.39 3.8 0.74 5.71 1.06v3.31c-0.01 1.59-0.64 3-1.68 4.05-1.05 1.04-2.46 1.67-4.05 1.68v2.5" style="fill: rgb(119, 131, 141);"></path></g>
  <g id="__id133_sc2rlpfpp"><path d="m280.61 337.84v-2.5c1.59-0.01 3-0.64 4.05-1.68 1.04-1.05 1.67-2.46 1.68-4.05v-3.31c0.82 0.15 1.66 0.28 2.5 0.41v2.9c0 4.54-3.69 8.23-8.23 8.23h-156.49c-4.54 0-8.22-3.69-8.22-8.23v-212.18c0-4.54 3.68-8.22 8.22-8.22h19.09c-0.09 0.83-0.18 1.67-0.26 2.5h-18.83c-1.59 0-3 0.63-4.05 1.67-1.03 1.05-1.67 2.46-1.67 4.05v212.18c0 1.59 0.64 3 1.67 4.05 1.05 1.04 2.46 1.67 4.05 1.68h156.49v2.5" style="fill: rgb(0, 0, 0);"></path></g>
  <g id="__id134_sc2rlpfpp"><path d="m257.32 109.21v41.03h31.52z" style="fill: rgb(255, 255, 255);"></path></g>
  <g id="__id135_sc2rlpfpp"><path d="m257.32 109.21h-2.5v41.03c0 0.66 0.27 1.31 0.74 1.77 0.46 0.47 1.1 0.73 1.76 0.73h31.52c0.94 0 1.82-0.54 2.23-1.39 0.43-0.85 0.32-1.88-0.25-2.63l-31.51-41.03c-0.66-0.85-1.77-1.19-2.79-0.85-1.02 0.35-1.7 1.3-1.7 2.37h2.5l-1.98 1.52 28.42 37.01h-23.94v-38.53h-2.5l-1.98 1.52 1.98-1.52" style="fill: rgb(41, 38, 38);"></path></g>
  <g id="__id136_sc2rlpfpp"><path d="m150.75 164.69h45.02c1.38 0 2.5-1.12 2.5-2.5s-1.12-2.5-2.5-2.5h-45.02c-1.38 0-2.5 1.12-2.5 2.5s1.12 2.5 2.5 2.5" style="fill: rgb(41, 38, 38);"></path></g>
  <g id="__id137_sc2rlpfpp"><path d="m150.75 191.07h102.73c1.38 0 2.5-1.12 2.5-2.5s-1.12-2.5-2.5-2.5h-102.73c-1.38 0-2.5 1.12-2.5 2.5s1.12 2.5 2.5 2.5" style="fill: rgb(41, 38, 38);"></path></g>
  <g id="__id138_sc2rlpfpp"><path d="m150.75 217.45h102.73c1.38 0 2.5-1.12 2.5-2.5s-1.12-2.5-2.5-2.5h-102.73c-1.38 0-2.5 1.12-2.5 2.5s1.12 2.5 2.5 2.5" style="fill: rgb(41, 38, 38);"></path></g>
  <g id="__id139_sc2rlpfpp"><path d="m150.75 243.83h102.73c1.38 0 2.5-1.12 2.5-2.5s-1.12-2.5-2.5-2.5h-102.73c-1.38 0-2.5 1.12-2.5 2.5s1.12 2.5 2.5 2.5" style="fill: rgb(41, 38, 38);"></path></g>
  <g id="__id140_sc2rlpfpp"><path d="m150.75 270.21h102.73c1.38 0 2.5-1.12 2.5-2.5s-1.12-2.5-2.5-2.5h-102.73c-1.38 0-2.5 1.12-2.5 2.5s1.12 2.5 2.5 2.5" style="fill: rgb(41, 38, 38);"></path></g>
  <g id="__id141_sc2rlpfpp"><path d="m150.75 296.59h102.73c1.38 0 2.5-1.12 2.5-2.5s-1.12-2.5-2.5-2.5h-102.73c-1.38 0-2.5 1.12-2.5 2.5s1.12 2.5 2.5 2.5" style="fill: rgb(41, 38, 38);"></path></g>
 </g>
</svg>