<svg class="network-eagle" version="1.1" xmlns="http://www.w3.org/2000/svg" xmlns:xlink="http://www.w3.org/1999/xlink" x="0px" y="0px" viewBox="0 0 576.1 727.6" enable-background="new 0 0 576.1 727.6" xml:space="preserve" style="fill: rgb(0, 0, 0);" role="img" aria-label="Eagle Outline Vector">
<g id="__id49_sd1m4n4cvi">
	<path d="M535.3,518.4l-0.2-0.1l-118.3,11.5l-29.3-23.7l0.1,0l-1-0.8l19.5-17.1l31.9-12.2l1.5-24.2l24.6-18.7   l17.1-22.1l29.3-27.8l0.9-1.4l12.3-26.1l0.3-0.2l52.2-23.5l-49.4-11.1l38.4-22.1l-19.7-10.2l15.8-25.8l-6.2-11.1l3.5-4.8l16.2-21.7   l-16.5-4.6l11.2-26.1l-21.2-3.5l7.4-37.7l-23.5-14.6c-2.6-14.8-6.3-43-6.3-43s-11.4,2.6-14.5,3.5l-3-28l-13,0.1l0,0l-1.1-1.2l0,0   l-7.8-26.6l-21.1,17.3l-16.1-25.3l-17.9,6L406.7,0l-15.9,44.3l-32.7-12.8L350,75.7l-28.5,7.9l12.6,30.5l-0.1,0.2l0.2,0.1l31.7,76.6   l1,59l-15.4-18.3l-2.6,83.2l-0.7,1.5l-36.9,73.9l-45,48.6l-10,0.5l-10.7-16l-8.9-9.4l-12.3-1.4L218,404l-15.5-5l-9.3-11.9   l-18.5-0.1l-12.8-13l-24.3,6.7l-3.4-13.9l-9.3-1l-13.9-18.8l-15.9-34.1l-4.8,12.9l-7.8-10L72,320.3l-14.4-16.7l-6.3,8.6L34,289.6   l-5.7,21.9L0,306.4L61.1,384l0.2,0.3l60,16.5l60.8,74.4l-7.6,6.6L167,478l-8.6,17.8l-2,13.5l-6.2-20.9l1.5,50.5l0.3,0.3   c2.2,2.3,4.7,5.2,5.1,5.9l5,38.1l25.7,7.3l-5.6-12.8l4.2-3.7l5.9-22.5l18.4,0.9l19,13.5l12.4,1.7v-6.9l8.7,7.9l-13,19.7l-1.3,2.5   l-6.4,43.2l-11.2,14.9l-0.1-0.1l-0.2,0.3l-9.1-4.3l-34.1,22.5l26.9,22.8l6.6-18.6l16.6-12.9l5.5,21.4l0,0l-19.9,14.8l23.7-2.4   l7.9-16.9l-6.5-22.6l6.3-23.6l52.2-11.6l2,53.6c-0.8,2.6-1.8,5.6-2.4,6.2c-3.1,0.9-23.4,9.1-40.5,16l-0.9,0.4l9.8,22.9l22.1,10.9   l6.6-26.4l14.4,6.3l-13.6,10.7l11.7,5.8l17.1-15.5L305,684.2l8.6-22.1l30.3-8.8l16.7,3l8-6.1l20.7,11.9l0.5-1   c3-6.1,4.6-9.3,5.3-11.1c2.9,2.3,10.8,8.7,14.2,11.4l1,0.8l5.8-13.2l20.4,13.9l18.2-16.6l32.1,0.4l6.2-17.5l19.1,4.1l12.8-11.9   l32.2-8.6l2.8-24.4l13-16.1l-18.9-14.9l21.8-22.8L535.3,518.4z M343,651.5l-29.3,8.5l-2.3-14.9l40.1-44.1L343,651.5z M260,547.6   l-0.2-0.3c-1.7-1.3-4-3-5.5-4.2c2.6-0.4,7.1-1,10.3-1.4l2.3-0.3l-9.7-7.8l12.5-5.2l32.2,27.9l-5.1,31.1l-35.9-39.2L260,547.6z    M252,541.5l-38.3-12l12.2-11.8l27.8,3l13.7,6.4l-14.1,5.8l8.7,7l-4,0.6C254.8,541,253,541.3,252,541.5z M210,550.3l-17.7-0.9   l-0.5-2.5l19-14.8L210,550.3z M168.6,559.4l9.6-9.8l1.5,24.5L168.6,559.4z M183.4,535.8l10.4-5.9l4.6-13.4l24.7-18.9l1.5,18.6   l-13.4,12.9l-20.9,16.3l-9.8,0.8L183.4,535.8z M184.2,533.1l2.1-7.3l9.3-7.1l-3.4,9.8L184.2,533.1z M188.3,481.1l-2.9-5.5L212,465   l1,3l-3.3,12.5L188.3,481.1z M124.6,387.5l4.1,2.8l-4.4,5.3L124.6,387.5z M130.3,391.4L153,407l0.1,0.2l0.1-0.1l23.6,16.2   l-53.2-23.8L130.3,391.4z M136.8,383.5l13,18.9l-18.3-12.5L136.8,383.5z M184.7,426.3l-29.9-20.5l18.7-15.3L184.7,426.3z    M201.3,404.4l10.8,57l-24.4-32.7L201.3,404.4z M187.3,431.5l23.7,31.7l-26.4,10.5L187.3,431.5z M214.6,469.6l32.2,0.7l-5.7,11.1   l-17,13l-12.8-12.4L214.6,469.6z M255.7,441.7l23.2,28.6l52.5,39c-4.4,0.1-13.5,0.4-23.3,0.7l-58-41.5l0-0.1l-33.3-0.7L255.7,441.7   z M429.6,294.5l-0.1,0.3l-76.2,18.7l74.9-72.6L429.6,294.5z M430.2,239l79.1-76.7l2.1,4.4l12.4,105l-92.3,22.6L430.2,239z    M429.6,217.2l-1.1-5.2l78.5-54.4l1.4,2.8l-78.3,75.9L429.6,217.2z M368.4,250.2l-0.5-59.3l15.8-46.8l34.9,31.2l0.1,0.3   L368.4,250.2z M416.1,75.7l-79.2,37.2l14.5-35.3L416.1,75.7z M392,46.9l0.1-0.4l37.6-2.6L422,73.5l-67.7,2l37.2-28.8L392,46.9z    M476,93l-0.5,0l-51.2-18.7l40.2-10.8L476,93z M478.6,94.9l14.1-19.2c-0.8,14.7-1.9,35.6-2.3,43.3L478.6,94.9z M470.5,93.4   l-70.7,4.2l23-21.6L470.5,93.4z M419.5,76.3l-24.1,22.6l-46.9,10.5L419.5,76.3z M398.7,99.6l74.2-4.4l-53,78.6l-35.5-31.7   L398.7,99.6z M419.2,178.4l7,32.7L371.7,249L419.2,178.4z M420.8,176.1l54.6-81l1.3,0.5l29.4,60.1L428,209.9L420.8,176.1z    M508.7,156.4l13.2-9.2l-12,11.6L508.7,156.4z M522.9,322.7l-0.9,31.3l-52,11l19.3-31.9L522.9,322.7z M388.6,437.1l56.5-33.3   l-7.2,45.4L388.6,437.1z M270.3,526.3l-13.5-6.3l12.3-6.8l44.9,20.1l-1.7,3.1L270.3,526.3z M254.6,518.8l-28-3l-0.6-7.6l21.4-2.4   l19.1,6.4L254.6,518.8z M242.5,482.8l15.1,10.1l-10.6,11l-21.2,2.4l-0.8-10L242.5,482.8z M249.1,470.2l55.6,39.8   c-16.3,0.5-33.7,0.9-35.6,1l-19.8-6.7l11.4-11.8l-17.2-11.5L249.1,470.2z M331,540.8l-16.7-4l1.5-2.8L331,540.8z M306.9,512   l7.2,19.1l-40.7-18.2C280.3,512.7,294.2,512.3,306.9,512z M311.3,538.2l-8.6,16.2l-29-25.2L311.3,538.2z M348,596.4l-49.5-7.6   l5.1-30.9L348,596.4z M298.3,590.8l52.3,8L296.5,615L298.3,590.8z M304.2,555.7l9.1-17l27.3,6.6l10.8,51.5L304.2,555.7z    M316.7,532.3l-7.6-20.3c11.3-0.3,21.3-0.6,24.4-0.7l6.6,31.5L316.7,532.3z M334.5,509.1l-30.2-22.5l31.6-18.6l46.4,36.5   L334.5,509.1z M521.4,276.3l-54.2,89.3l-1,1.6l-19.8,32.7l-30.7-63.8L521.4,276.3z M336.7,464.1c-0.9-3.9-3.6-13-11-34.5l34.5-36.5   L336.7,464.1z M362.9,391.3l80.8,10.9L338.8,464L362.9,391.3z M333.5,467.1l-30.9,18.2l-22.3-16.6l-4.9-6.1L333.5,467.1z    M386.8,438.1l18,46.9l-65.2-19.1L386.8,438.1z M468.2,367.9l38.6,14.3l-58.2,17.9L468.2,367.9z M501.1,313.5l32.3-17.6l-40.7,31.6   L501.1,313.5z M525.1,274l1.4-1.6l20.8-15L508.1,302L525.1,274z M518.2,275l-101.9,58.1l14.7-36.6L518.2,275z M413.9,337.1   l30.4,63.2l-80.7-10.9l48.6-51.3L413.9,337.1z M324.9,427.5c-5.2-15.1-10.4-29.8-11.7-33.3l93-52.7L324.9,427.5z M334.9,465.2   l-59-4.5l48.1-29.8C329.5,446.9,334,460.9,334.9,465.2z M294,587.4l-11.8-4.1l-3.7-2.2l-11.6-22.9L294,587.4z M277.9,583.9l17,5.9   l-43.7,22.4l0.2-0.3l-2.1,1.3l-10.7-22.6l0.3-0.5L277.9,583.9z M238.2,594.7l9.2,19.4l-10.2,6.1L238.2,594.7z M249.5,615.3l46.8-24   l-1.8,24.2l-51.2,11.4L249.5,615.3z M348.3,601.6l-37.3,41l0,0l-1.8,1.9l-6,8.8l-6.7-36.2L348.3,601.6z M353.8,599.7l46.5-6.8   l2.3,27.7l-0.1-0.1L385.4,641L350,622.4L353.8,599.7z M402.3,592.6l28.7-4.2l8.3,53.2l-34.7-19.8l0.1,0L402.3,592.6z M441.2,641.4   l-8.2-52.9l84.2,19.9l-34.5,6.1L441.2,641.4z M520.8,607.2l-88.4-20.9l0,0l-3.5-13.1l104.4-51.1L520.8,607.2z M428.4,571.3   l-10.7-39.6l114.4-11.1L428.4,571.3z M415.5,531.4l14.9,55.1l-76.7,11.2l-18.2-86.7l49.1-4.7L415.5,531.4z M338.6,467.7l66.1,19   L384.9,504L338.6,467.7z M406.9,485.7l-17.4-46.3l48,11.7l-1.5,23.5L406.9,485.7z M479.7,409.6l-17,22L440,448.9l7.3-46.1l0.5,0.1   l-0.2-0.3l58.5-18L479.7,409.6z M509.4,381.1L471,366.8l50.1-10.6L509.4,381.1z M569.8,332.7L524,353.3l0.9-30.7L569.8,332.7z    M560.8,298.9l-37.3,21.5l-30.2,9.1l50.6-39.3L560.8,298.9z M558.8,262.8l-15.6,25.4l-37.5,20.5l47.8-55.4L558.8,262.8z    M566.5,196.1L555.4,222l15.8,4.4l-18.3,24.5l-26.3,19l21.1-76.8L566.5,196.1z M546,191.7l-20.7,75.4l-11.9-100.9l0-0.2l-2.6-5.3   l20.7-20l21.8,13.6L546,191.7z M523.9,98.1c0,0,2.1,17.9,6.2,41l-22.3,15.5l-15.2-31.1c2.3-3.2,12.1-14.7,18.4-22   C515.3,100.2,523.9,98.1,523.9,98.1z M509.4,100.3c-9.9,11.5-14.7,17.3-17.1,20.3c0.1-1.3,0.2-2.8,0.2-4.6   c0.3-4.8,0.6-11.3,0.9-17.7c0.6-10.8,1.1-21.6,1.3-24.8l11.7-0.1L509.4,100.3z M492.7,72.2l-14.8,20.2l-11.6-29.7l19-15.7   L492.7,72.2z M463.6,61.8l-39.2,10.5l7.4-28.7l16.6-5.6L463.6,61.8z M407.1,4.7L429.3,42l-36.5,2.5L407.1,4.7z M359.7,34.2   l29.7,11.7l-37.1,28.7L359.7,34.2z M324.3,85l24.8-6.9l-13.8,33.5L324.3,85z M336.7,115.1l59.4-14.3l0.1,0L366.8,188L336.7,115.1z    M353.3,237l14.2,17.2l0.4-0.3l58.8-40.7l0.9,4.1l0.5,20.8L351,312.8L353.3,237z M313.1,391.4l37.5-75.2l78-19.2l-14.5,36.1   l-2.4,2.5L313,391.5L313.1,391.4z M267.4,440.8l43.6-47.1l0.1,0.3c3.8,10.5,8.2,23.2,12.3,35l-50.1,31.1l-15.3-18.8L267.4,440.8z    M254.5,440.1l-39.9,26.6l-0.6-1.8l22.7-48.3l7.4,7.9L254.5,440.1z M223.5,414.4l11.4,1.3L214,460.3l-11.2-59.1l14.1,4.5   L223.5,414.4z M201.2,400.6l-14.4,25.7l-11.7-37.3l17.2,0.1L201.2,400.6z M173.1,388.2l-19.6,16.1l-15-21.8l22.8-6.3L173.1,388.2z    M135.8,381.6l-5.9,7.2l-5.3-3.6l0.7-17.4l7.3,0.8L135.8,381.6z M122.7,383.8l-12-8.2L95.7,372l27.7-3.6L122.7,383.8z M91.1,329.7   l4.4-11.7l13.9,29.9l13.7,18.6l-31.2,4.1l-19.4-48.2l9.6-4.2L91.1,329.7z M89.8,370.6l-18.2-4.3l1.7-36.9L89.8,370.6z M57.7,306.8   l13.8,15.9l0,0l-1.6,36.2L52,314.6L57.7,306.8z M70.7,366.1l-24-5.7L52,320L70.7,366.1z M34.9,294.1l15.8,20.8L45.2,356l-15.1-43.7   L34.9,294.1z M28.4,313.5l15.8,45.7l-39.4-50L28.4,313.5z M62.5,382.5l-15.7-19.9l63.1,14.9l12.7,8.7l-0.5,12.7L62.5,382.5z    M125.4,402.5l60.1,26.9l-2.8,43.3L125.4,402.5z M167.9,480.7l7,3.4l8.8-7.6l2.7,5.2L161.4,494L167.9,480.7z M153.6,538.1l-1-34.4   l4.5,14.9l3.1-21.7l27.8-13.8l21.2-0.6l13.4,13.1l-37.8,28.9l-0.3,0.2l-6.3,22.2L167,558.2l-6.5-2.2l-1.5-11.4l0-0.2   C158.6,543.5,155.6,540.2,153.6,538.1z M184.2,587.3l-20.3-5.7l-3.1-23.3l5.9,2l13.4,17.6L184.2,587.3z M184.5,572.8l-2.7,2.4   l-1.6-27l9.7-0.7l0.5,2.8L184.5,572.8z M239.9,565.2l-9.6-1.3l-18.4-13l0.8-19.5l38.7,12.1c0.7,0.6,2.4,1.9,5.9,4.6l-17.3,8.2   l-0.1-0.1V565.2z M241.6,557.6l17.6-8.5l16,30.3l-22.7-11.9L241.6,557.6z M252.3,569.6l23.9,12.5l-35.8,5.6L252.3,569.6z    M231.9,634.7l3.8-25.8l-0.6,14.9l11.1-6.6l-5.4,10.2l-0.1,0l-6.5,24.6l-7.5,3.3l-0.1-0.3l-0.5,0.4l-5.7-5.3L231.9,634.7z    M224.4,656.8L211,667.1l8.2-15.2L224.4,656.8z M209.5,647l8,3.8l-9.9,18.5l-9.4-8.4l-7.2,17.2l-12.5-10.6L209.5,647z M201.2,686.7   l-8.5-7.3l6.4-15.2l7.7,6.9L201.2,686.7z M227.1,657.4l6.6-2.9l-2.3,19.9L227.1,657.4z M233.3,690.4l-15.3,1.6l13.7-10.2l7.6-4.1   L233.3,690.4z M240.2,674.8l-7.3,4l2.4-20.9L240.2,674.8z M297.6,674l4,8.1l-6.3-3.2C295.9,678.4,296.7,677.1,297.6,674z    M308.3,706.4l-2.7-17.6l12,18.6L308.3,706.4z M285.4,692.5l8.4-12.1l8.5,4.3l-11.9,13.7L285.4,692.5z M255.2,694.9   c12.2-4.9,28.9-11.6,36-14.3l-7.9,11.4l-19.9,22.2L255.2,694.9z M283.2,724.7l-18.4-9.1l19.4-21.6l5.2,6L283.2,724.7z M292.1,699.5   l11.2-12.8l2.9,19.1L292.1,699.5z M303.2,721.6l-7.6-3.8l12.1-9.5l9.1,0.9L303.2,721.6z M303.8,681.9l-5.4-10.8l-1.5-41.2l5.3,28.7   l7.4-11.6l2.2,14.2L303.8,681.9z M570,573l-12,14.9l-2.7,23.6l-31.3,8.4l-12.4,11.5l-19.8-4.3l-6.3,17.8l-31.5-0.4l-17.6,16.1   l-21-14.4l-5.8,13c-9.5-7.6-15.3-11.9-15.4-11.9l-0.6,1.6c-0.6,1.5-2.9,6.2-5,10.6l-20-11.5l-8.4,6.4l-15.1-2.7l4.6-27.1l36.3,19.1   l17-20.4l37.3,21.3l43.2-28l39-6.9l13-88.8l36.6,15l-21.2,22.2L570,573z" style="fill: rgb(140, 205, 176);"></path>
</g>
</svg>