<svg class="pillar-img" version="1.1" xmlns="http://www.w3.org/2000/svg" xmlns:xlink="http://www.w3.org/1999/xlink" x="0px" y="0px" viewBox="0 0 431.779 484.084" style="fill: rgb(0, 0, 0);" xml:space="preserve" role="img" aria-label="Brain and Head Icon">
<g id="__id67_sncz9h8nyi">
	<path style="fill: rgb(102, 103, 105);" d="M381.103,484.084c-1.551-3.61-2.819-6.456-4.015-9.349c-11.625-28.129-15.385-57.574-13.558-87.688   c2.343-38.604,16.452-73.272,37.646-105.153c28.981-43.622,37.693-90.83,24.787-141.472   C409.303,75.08,371.309,27.857,304.828,9.479c-25.332-7.002-52.629-8.068-79.146-9.24c-25.921-1.146-51.896,1.683-76.386,11.823   c-38.934,16.116-72.659,38.196-88.086,79.969c-7.241,19.609-13.479,39.604-19.605,59.599c-3.629,11.854-3.524,23.719,2.305,35.304   c3.882,7.732,3.681,15.579-1.682,23.127c-11.745,16.525-23.191,33.266-34.745,49.929c-8.664,12.503-6.248,22.773,7.229,29.794   c3.439,1.794,7.153,3.4,10.926,4.14c7.377,1.447,8.913,6.586,6.213,11.846c-6.046,11.801-2.225,20.297,5.02,25.504   c0.354,7.657-1.387,14.411,1.226,17.857c6.725,8.872,7.351,17.306,5.013,27.801c-5.076,22.812,5.896,39.565,28.935,43.573   c15.346,2.667,31.127,2.727,46.682,4.231c20.222,1.962,27.771,10.592,28.701,30.739c0.435,9.459,2.352,18.843,3.647,28.61   C228.124,484.084,304.131,484.084,381.103,484.084z"></path>
</g>
<g id="__id68_sncz9h8nyi">
	<ellipse style="fill:#FFFFFF;" cx="237.653" cy="156.781" rx="164.382" ry="139.625"></ellipse>
</g>
</svg>