<svg class="pillar-img" xmlns="http://www.w3.org/2000/svg" xmlns:xlink="http://www.w3.org/1999/xlink" preserveAspectRatio="xMidYMid meet" version="1.1" viewBox="107.3 85.0 210.7 255.1" zoomAndPan="magnify" style="fill: rgb(0, 0, 0);" role="img" aria-label="Bulb Creativity School Education Learning Line and Fill">
 <g id="__id41_stq1v04gl">
  <g id="__id42_stq1v04gl"><path d="m280.73 196.99c0-37.19-30.58-67.22-67.96-66.34-36.16 0.86-65.23 31.08-64.75 67.25 0.26 19.12 8.61 36.28 21.77 48.22 10.59 9.61 16.87 23.07 16.87 37.37v15.13h55.43v-14.71c0-14.51 6.34-28.17 17.05-37.96 13.27-12.13 21.59-29.57 21.59-48.96" style="fill: rgb(242, 237, 219);"></path></g>
  <g id="__id43_stq1v04gl"><path d="m280.73 196.99h2.45c0-38.01-30.8-68.81-68.81-68.81-0.55 0-1.11 0.01-1.66 0.02-18.6 0.44-35.4 8.37-47.52 20.82-12.13 12.44-19.62 29.43-19.62 47.98v0.94-0.01c0.27 19.82 8.93 37.63 22.58 50 10.1 9.18 16.05 21.98 16.05 35.56v15.13c0 0.65 0.26 1.28 0.72 1.74 0.46 0.45 1.09 0.71 1.74 0.71h55.43c0.65 0 1.28-0.26 1.73-0.71 0.46-0.46 0.72-1.09 0.72-1.74v-14.71c0-13.79 6.03-26.8 16.25-36.15 13.75-12.57 22.39-30.67 22.39-50.77h-4.9c0 18.68-8.01 35.46-20.8 47.15-11.18 10.23-17.84 24.54-17.84 39.77v12.26h-50.53v-12.68c0-15.03-6.59-29.14-17.67-39.19-12.68-11.51-20.72-28.02-20.97-46.43v-0.01-0.86c0-17.21 6.95-32.98 18.23-44.56 11.28-11.57 26.86-18.93 44.12-19.34 0.52-0.01 1.04-0.02 1.55-0.02 17.66 0.01 33.62 7.15 45.19 18.72s18.72 27.53 18.72 45.19h2.45" style="fill: rgb(251, 253, 254);"></path></g>
  <g id="__id44_stq1v04gl"><path d="m280.73 196.99c0-37.19-30.58-67.22-67.96-66.34-36.16 0.86-65.23 31.08-64.75 67.25 0.26 19.12 8.61 36.28 21.77 48.22 10.59 9.61 16.87 23.07 16.87 37.37v15.13h55.43v-14.71c0-14.51 6.34-28.17 17.05-37.96 13.27-12.13 21.59-29.57 21.59-48.96" style="fill: rgb(242, 237, 219);"></path></g>
  <g id="__id45_stq1v04gl"><path d="m280.73 196.99h2.45c0-38.01-30.8-68.81-68.81-68.81-0.55 0-1.11 0.01-1.66 0.02-18.6 0.44-35.4 8.37-47.52 20.82-12.13 12.44-19.62 29.43-19.62 47.98v0.94-0.01c0.27 19.82 8.93 37.63 22.58 50 10.1 9.18 16.05 21.98 16.05 35.56v15.13c0 0.65 0.26 1.28 0.72 1.74 0.46 0.45 1.09 0.71 1.74 0.71h55.43c0.65 0 1.28-0.26 1.73-0.71 0.46-0.46 0.72-1.09 0.72-1.74v-14.71c0-13.79 6.03-26.8 16.25-36.15 13.75-12.57 22.39-30.67 22.39-50.77h-4.9c0 18.68-8.01 35.46-20.8 47.15-11.18 10.23-17.84 24.54-17.84 39.77v12.26h-50.53v-12.68c0-15.03-6.59-29.14-17.67-39.19-12.68-11.51-20.72-28.02-20.97-46.43v-0.01-0.86c0-17.21 6.95-32.98 18.23-44.56 11.28-11.57 26.86-18.93 44.12-19.34 0.52-0.01 1.04-0.02 1.55-0.02 17.66 0.01 33.62 7.15 45.19 18.72s18.72 27.53 18.72 45.19h2.45" style="fill: rgb(251, 253, 254);"></path></g>
  <g id="__id46_stq1v04gl"><path d="m223.17 296.17h-34.06v-12.68c0-15.03-6.59-29.14-17.67-39.19-12.68-11.51-20.72-28.02-20.97-46.43v-0.01-0.86c0-17.21 6.95-32.98 18.23-44.56 11.28-11.57 26.86-18.93 44.12-19.34 0.52-0.01 1.04-0.02 1.55-0.02 0.84 0 1.68 0.02 2.52 0.05-5.93 25.53-10.27 51.44-11.01 77.62-0.83 29.42 3.51 59.54 17.29 85.42" style="fill: rgb(102, 103, 105);"></path></g>
  <g id="__id47_stq1v04gl"><path d="m224.51 298.62h-37.85v-15.13c0-14.3-6.28-27.76-16.87-37.37-13.16-11.94-21.51-29.1-21.77-48.22-0.48-36.17 28.59-66.39 64.75-67.25 0.42-0.01 0.84-0.01 1.26-0.01 1.15 0 2.29 0.03 3.42 0.08-0.18 0.8-0.38 1.61-0.56 2.41-0.84-0.03-1.68-0.05-2.52-0.05-0.51 0-1.03 0.01-1.55 0.02-17.26 0.41-32.84 7.77-44.12 19.34-11.28 11.58-18.23 27.35-18.23 44.56v0.86 0.01c0.25 18.41 8.29 34.92 20.97 46.43 11.08 10.05 17.67 24.16 17.67 39.19v12.68h34.06c0.44 0.82 0.88 1.64 1.34 2.45" style="fill: rgb(102, 103, 105);"></path></g>
  <g id="__id48_stq1v04gl"><path d="m206.21 298.15l-15.55-78.83c-0.22-1.1-1.29-1.82-2.39-1.6s-1.82 1.29-1.6 2.39l15.56 78.83c0.21 1.1 1.28 1.82 2.38 1.6s1.82-1.29 1.6-2.39" style="fill: rgb(251, 253, 254);"></path></g>
  <g id="__id49_stq1v04gl"><path d="m227.27 298.94l15.55-78.83c0.22-1.1-0.5-2.17-1.6-2.39s-2.17 0.5-2.38 1.6l-15.56 78.83c-0.22 1.1 0.5 2.17 1.6 2.39s2.17-0.5 2.39-1.6" style="fill: rgb(251, 253, 254);"></path></g>
  <g id="__id50_stq1v04gl"><path d="m241.79 325.96h-55l-0.22-27.34h55.44l-0.22 27.34" style="fill: rgb(0, 0, 0);"></path></g>
  <g id="__id51_stq1v04gl"><path d="m241.79 325.96v-2.45h-52.57l-0.18-22.44h50.5l-0.2 24.87 2.45 0.02v-2.45 2.45l2.45 0.02 0.22-27.34c0.01-0.65-0.25-1.28-0.71-1.75-0.46-0.46-1.09-0.72-1.74-0.72h-55.44c-0.65 0-1.28 0.26-1.74 0.72-0.46 0.47-0.71 1.1-0.71 1.75l0.22 27.34c0.01 1.35 1.11 2.43 2.45 2.43h55c1.35 0 2.44-1.08 2.45-2.43l-2.45-0.02" style="fill: rgb(251, 253, 254);"></path></g>
  <g id="__id52_stq1v04gl"><path d="m186.99 326.07c1.45 6.77 7.44 11.61 14.36 11.61h25.88c6.93 0 12.91-4.84 14.36-11.61h-54.6" style="fill: rgb(0, 0, 0);"></path></g>
  <g id="__id53_stq1v04gl"><path d="m186.99 326.07l-2.39 0.51c1.69 7.9 8.67 13.55 16.75 13.55h25.88c8.09 0 15.07-5.65 16.76-13.55 0.15-0.72-0.03-1.47-0.49-2.05-0.47-0.58-1.16-0.91-1.91-0.91h-54.6c-0.74 0-1.44 0.33-1.9 0.91-0.47 0.58-0.65 1.33-0.49 2.05l2.39-0.51v2.45h54.6v-2.45l-2.39-0.51c-1.21 5.64-6.2 9.67-11.97 9.67h-25.88c-5.77 0-10.76-4.03-11.96-9.67l-2.4 0.51v2.45-2.45" style="fill: rgb(251, 253, 254);"></path></g>
  <g id="__id54_stq1v04gl"><path d="m193.02 235.38l10.9-12.36 9.1 13.3c0.36 0.53 0.94 0.85 1.58 0.88 0.63 0.03 1.24-0.23 1.65-0.72l11.34-13.46 8.76 12.2c0.66 0.91 1.93 1.12 2.84 0.47 0.92-0.66 1.12-1.93 0.47-2.84l-10.29-14.32c-0.37-0.51-0.95-0.82-1.58-0.85-0.62-0.02-1.23 0.25-1.63 0.73l-11.3 13.41-9.06-13.25c-0.35-0.52-0.93-0.85-1.55-0.89-0.63-0.03-1.24 0.22-1.65 0.69l-12.64 14.32c-0.74 0.84-0.66 2.13 0.18 2.87 0.85 0.74 2.13 0.66 2.88-0.18" style="fill: rgb(251, 253, 254);"></path></g>
  <g id="__id55_stq1v04gl"><path d="m218.11 114.75v-27.23c0-1.372-1.11-2.481-2.49-2.481-1.37 0-2.48 1.109-2.48 2.481v27.23c0 1.37 1.11 2.48 2.48 2.48 1.38 0 2.49-1.11 2.49-2.48" style="fill: rgb(251, 253, 254);"></path></g>
  <g id="__id56_stq1v04gl"><path d="m251.63 120.99l16.63-21.556c0.84-1.086 0.63-2.645-0.45-3.481-1.08-0.84-2.64-0.637-3.48 0.449l-16.63 21.558c-0.84 1.09-0.63 2.65 0.45 3.49 1.09 0.83 2.65 0.63 3.48-0.46" style="fill: rgb(251, 253, 254);"></path></g>
  <g id="__id57_stq1v04gl"><path d="m186.57 117.96l-16.62-21.558c-0.84-1.086-2.4-1.289-3.49-0.449-1.08 0.836-1.28 2.395-0.44 3.481l16.62 21.556c0.84 1.09 2.4 1.29 3.48 0.46 1.09-0.84 1.29-2.4 0.45-3.49" style="fill: rgb(251, 253, 254);"></path></g>
  <g id="__id58_stq1v04gl"><path d="m275.79 145.68l22.69-12.1c1.21-0.65 1.66-2.15 1.02-3.36s-2.15-1.67-3.36-1.02l-22.69 12.1c-1.21 0.65-1.66 2.15-1.02 3.36s2.15 1.66 3.36 1.02" style="fill: rgb(251, 253, 254);"></path></g>
  <g id="__id59_stq1v04gl"><path d="m160.82 136.76l-22.69-12.1c-1.2-0.64-2.71-0.19-3.35 1.02-0.65 1.21-0.19 2.71 1.02 3.36l22.69 12.1c1.21 0.65 2.71 0.19 3.35-1.02 0.65-1.21 0.19-2.71-1.02-3.36" style="fill: rgb(251, 253, 254);"></path></g>
  <g id="__id60_stq1v04gl"><path d="m285.5 176.21l25.71-3.03c1.36-0.16 2.34-1.39 2.18-2.75s-1.39-2.34-2.75-2.18l-25.72 3.03c-1.36 0.16-2.33 1.39-2.18 2.75 0.16 1.36 1.4 2.34 2.76 2.18" style="fill: rgb(251, 253, 254);"></path></g>
  <g id="__id61_stq1v04gl"><path d="m141.79 168.25l-25.71-3.02c-1.36-0.16-2.6 0.81-2.76 2.17-0.16 1.37 0.82 2.6 2.18 2.76l25.71 3.02c1.36 0.16 2.6-0.81 2.76-2.17s-0.81-2.6-2.18-2.76" style="fill: rgb(251, 253, 254);"></path></g>
  <g id="__id62_stq1v04gl"><path d="m286.72 206.48h28.74c1.37 0 2.49-1.11 2.49-2.48s-1.12-2.48-2.49-2.48h-28.74c-1.37 0-2.48 1.11-2.48 2.48s1.11 2.48 2.48 2.48" style="fill: rgb(251, 253, 254);"></path></g>
  <g id="__id63_stq1v04gl"><path d="m109.74 206.48h28.74c1.37 0 2.48-1.11 2.48-2.48s-1.11-2.48-2.48-2.48h-28.74c-1.37 0-2.49 1.11-2.49 2.48s1.12 2.48 2.49 2.48" style="fill: rgb(251, 253, 254);"></path></g>
  <g id="__id64_stq1v04gl"><path d="m188.5 315.02h34c1.38 0 2.5-1.12 2.5-2.5s-1.12-2.5-2.5-2.5h-34c-1.38 0-2.5 1.12-2.5 2.5s1.12 2.5 2.5 2.5" style="fill: rgb(251, 253, 254);"></path></g>
 </g>
</svg>