<svg class="img-fill IDMBG-DBimg" xmlns="http://www.w3.org/2000/svg" xmlns:xlink="http://www.w3.org/1999/xlink" preserveAspectRatio="xMidYMid meet" version="1.0" viewBox="-0.0 -0.0 316.3 337.0" zoomAndPan="magnify" style="fill: rgb(255, 255, 255);" role="img" aria-label="Headset Icon"><g id="__id145_sgx81d1cg6"><path d="m158.50142.43902c-44.36353,0-83.81489,27.25186-108.96875,69.5625v44.625c-27.19367,2.12325-48.49619,24.39063-49.0625,51.9375-.008.37398-.0313.74912-.0313,1.125 0,.87698.0209,1.75868.0625,2.625 .0222.45979.0601.9184.0937,1.375 .0349.47242.078.93742.125,1.40625 .0158.15817.0453.311.0625.46875 .068.62261.12961,1.25917.21875,1.875 .0182.12556.0434.24973.0625.375 .13453.88311.29158,1.75694.46875,2.625 .16495.80885.36146,1.61143.5625,2.40625 .0365.14434.0561.29364.0937.4375 .20092.76703.42246,1.5283.65625,2.28125 .17862.57464.36515,1.15275.5625,1.71875 .17297.49607.34415.97958.53125,1.46875 .21775.56943.45096,1.12775.6875,1.6875 .30962.7327.62769,1.47215.96875,2.1875 .0802.1683.16805.33269.25.5 .32737.66835.67703,1.31662 1.03125,1.96875 .37676.69362.78119,1.38806 1.1875,2.0625 .0987.16385.18083.33732.28125.5 .26085.42255.54023.83546.8125,1.25 .21163.32216.4066.65154.625.96875 .1913.2779.39732.53847.59375.8125 .37256.51973.73434,1.02581 1.125,1.53125 .39879.51629.80158,1.03033 1.21875,1.53125 .38671.46419.7854.92444 1.1875,1.375 .18616.20872.3731.41926.5625.625 .27915.30304.58892.57854.875.875 .27775.28795.52834.59337.8125.875 .32431.32136.66749.62454 1,.9375 .31228.29392.61814.58862.9375.875l.0625.0625c.59314.53021 1.1957,1.02772 1.8125,1.53125 .61376.5015 1.23871.99453 1.875,1.46875 .66322.49357 1.34453.97456 2.03125,1.4375 .53819.36348 1.07292.71838 1.625,1.0625 .17789.11077.35195.23502.53125.34375 .3447.20918.71268.39221 1.0625.59375s.70546.39902 1.0625.59375l.8125.4375c.55224.28874 1.09269.57394 1.65625.84375l.125.0625c.74691.35519 1.51541.67888 2.28125,1 .69996.294 1.41002.61024 2.125.875l.28125.0937c.55178.20026 1.12726.38 1.6875.5625 .79061.25754 1.56835.49738 2.375.71875 .65114.1787 1.30772.34543 1.96875.5l1.09375.25 .46875.0937c.46496.0942.93689.16791 1.40625.25 .63989.11192 1.28981.22337 1.9375.3125 .41341.057.83356.10865 1.25.15625 .63409.0722 1.26545.13747 1.90625.1875 1.4149.11129 2.83674.1875 4.28125.1875h6.3125v49.59375c15.43471,30.96588 44.72604,54.55137 81.03125,60.40625 1.67185,3.31715 5.08075,5.59375 9.0625,5.59375h19.71875c5.63503,0 10.15625-4.55247 10.15625-10.1875s-4.52122-10.15625-10.15625-10.15625h-19.71875c-3.1058,0-5.85598,1.38195-7.71875,3.5625-3.58263-.71801-7.11714-1.63968-10.5625-2.78125-4.04656-1.34077-7.97807-2.97352-11.8125-4.84375s-7.56411-3.97316-11.15625-6.3125-7.05531-4.90816-10.375-7.65625-6.51416-5.68477-9.53125-8.78125-5.84693-6.36549-8.53125-9.75-5.20985-6.88781-7.53125-10.5v-48.21875-52.875-91.28125c2.3214-3.61219 4.84693-7.11549 7.53125-10.5s5.51416-6.65352 8.53125-9.75 6.21156-6.03316 9.53125-8.78125 6.78286-5.31691 10.375-7.65625 7.32182-4.44227 11.15625-6.3125 7.76594-3.50298 11.8125-4.84375 8.20897-2.4053 12.4375-3.15625c2.11427-.37547 4.2209-.6583 6.375-.875s4.34108-.35587 6.53125-.40625c.84439-.0297 1.69129-.0317 2.53125-.0313 2.51988.001 5.01559.12375 7.5.375 3.31255.335 6.58543.87713 9.8125,1.625s6.41014,1.69255 9.53125,2.8125 6.19281,2.42377 9.1875,3.875 5.93346,3.03953 8.78125,4.78125 5.60082,3.63358 8.28125,5.625 5.28865,4.08093 7.78125,6.28125 4.87194,4.50657 7.15625,6.875c2.8687,3.14818 5.57647,6.40199 8.15625,9.75s5.03158,6.79021 7.34375,10.3125v143.90625h.0313c.30327.005.60174.0313.90625.0313h18.1875c1.52978,0 3.03481-.0941 4.53125-.21875 .85712-.0714 1.71759-.17028 2.5625-.28125 .76073-.0999 1.49989-.21249 2.25-.34375l.25-.0313 .28125-.0625c.73525-.13635 1.46334-.27163 2.1875-.4375 1.63533-.37457 3.23918-.82402 4.8125-1.34375 .78666-.25986 1.574-.549 2.34375-.84375s1.52936-.60879 2.28125-.9375 1.48565-.66952 2.21875-1.03125 1.47414-.73119 2.1875-1.125c1.42673-.78763 2.8141-1.65213 4.15625-2.5625 .64689-.43878 1.2803-.87774 1.90625-1.34375l.0625-.0625c1.94557-1.4534 3.8056-3.04986 5.53125-4.75 .41691-.41075.81559-.82576 1.21875-1.25 .15282-.1611.31794-.30575.46875-.46875 .0956-.10316.18646-.20858.28125-.3125 .44493-.48861.88587-.99498 1.3125-1.5 .12287-.1453.25367-.29087.375-.4375 .39691-.48023.77616-.97452 1.15625-1.46875 .40652-.52771.8007-1.05055 1.1875-1.59375 .0822-.11564.16867-.22743.25-.34375l.46875-.6875c.30012-.44393.5881-.89036.875-1.34375 .16987-.26801.33483-.54125.5-.8125 .25504-.41962.50637-.85408.75-1.28125 .18208-.31879.35564-.64584.53125-.96875 .21388-.39375.42086-.78778.625-1.1875l.0937-.1875c.2901-.57286.57403-1.1341.84375-1.71875 .0427-.0927.0828-.18828.125-.28125 .19103-.42055.38219-.85487.5625-1.28125 .14012-.33157.2727-.665.40625-1l.0625-.15625c.24408-.61723.46609-1.24657.6875-1.875 .034-.0967.0915-.18426.125-.28125 .17984-.52011.33596-1.03512.5-1.5625 .25915-.83465.50004-1.67935.71875-2.53125s.41658-1.72569.59375-2.59375c.1625-.79616.31083-1.59738.4375-2.40625 .0114-.0729.0201-.14572.0313-.21875 .0206-.13548.0429-.27043.0625-.40625 .1078-.74626.20461-1.49384.28125-2.25 .009-.093.0223-.18808.0313-.28125 .0769-.8008.14632-1.62648.1875-2.4375 .003-.0517-.002-.10454 0-.15625 .0414-.86339.0625-1.71976.0625-2.59375 0-.29492-.0265-.58125-.0313-.875-.44521-27.56288-21.67373-49.89514-48.8125-52.15625v-45.21875c-25.17922-41.83714-64.42851-68.75-108.5-68.75z" opacity=".806" stroke="#000" stroke-width=".878" style="fill: inherit;"></path></g></svg>