<svg class="network-security" xmlns="http://www.w3.org/2000/svg" xmlns:xlink="http://www.w3.org/1999/xlink" preserveAspectRatio="xMidYMid meet" version="1.0" viewBox="126.9 100.7 242.1 259.3" zoomAndPan="magnify" style="fill: rgb(0, 0, 0);" role="img" aria-label="24 Hours Phone Support Icon"><g id="__id147_su49zcvc7n" style="fill: rgb(204, 204, 204);"><path d="M 271.453125 342.507812 L 271.492188 342.507812 Z M 154.0625 212.585938 C 152.652344 212.585938 151.320312 213.21875 149.890625 214.472656 C 149.742188 214.613281 147.855469 216.40625 146.457031 217.734375 L 144.882812 219.230469 C 137.734375 225.90625 134.492188 237.964844 136.632812 249.941406 C 137.328125 253.832031 138.445312 257.855469 139.953125 261.910156 C 147.589844 282.410156 162.085938 300.238281 172.902344 311.589844 C 183.671875 323.015625 200.703125 338.445312 220.761719 347.164062 C 224.730469 348.890625 228.691406 350.21875 232.53125 351.121094 C 244.375 353.898438 256.597656 351.308594 263.65625 344.519531 L 265.175781 343.078125 C 266.539062 341.789062 268.390625 340.035156 268.691406 339.746094 C 272.925781 335.390625 270.726562 331.683594 261.996094 322.800781 L 259.765625 320.507812 C 254.15625 314.691406 244.785156 304.921875 236.90625 305.886719 C 234.816406 306.132812 232.578125 307.695312 230.210938 309.351562 C 227.800781 311.03125 225.304688 312.773438 222.285156 313.730469 C 214.203125 316.289062 206.019531 314.605469 199.222656 309.003906 C 195.199219 305.683594 191.109375 301.8125 187.398438 297.800781 C 183.644531 293.9375 179.992188 289.644531 176.90625 285.457031 C 171.675781 278.371094 170.4375 270.105469 173.421875 262.175781 C 174.535156 259.214844 176.410156 256.816406 178.21875 254.503906 C 180 252.222656 181.679688 250.070312 182.039062 247.996094 C 183.386719 240.195312 174.164062 230.300781 168.65625 224.390625 L 166.488281 222.035156 C 160.6875 215.691406 157.183594 212.585938 154.0625 212.585938 Z M 242.097656 360.019531 C 238.070312 360.019531 234.199219 359.53125 230.753906 358.722656 C 226.453125 357.71875 222.046875 356.238281 217.644531 354.324219 C 196.375 345.082031 178.492188 328.902344 167.234375 316.960938 C 155.929688 305.101562 140.730469 286.378906 132.636719 264.636719 C 130.964844 260.144531 129.722656 255.664062 128.945312 251.316406 C 126.882812 239.761719 128.589844 223.765625 139.558594 213.515625 L 141.078125 212.074219 C 142.585938 210.640625 144.636719 208.695312 144.726562 208.617188 C 155.863281 198.847656 165.726562 209.625 172.25 216.765625 L 174.371094 219.0625 C 180.867188 226.035156 191.742188 237.707031 189.730469 249.328125 C 189.042969 253.332031 186.5625 256.507812 184.371094 259.308594 C 182.855469 261.25 181.425781 263.082031 180.730469 264.929688 C 178.683594 270.371094 179.53125 275.867188 183.1875 280.820312 C 186.074219 284.730469 189.488281 288.746094 193.066406 292.429688 C 196.605469 296.253906 200.433594 299.878906 204.191406 302.980469 C 208.945312 306.894531 214.386719 308.039062 219.929688 306.28125 C 221.8125 305.6875 223.71875 304.355469 225.738281 302.945312 C 228.652344 300.914062 231.953125 298.605469 235.992188 298.128906 C 247.6875 296.769531 258.773438 308.230469 265.386719 315.089844 L 267.570312 317.328125 C 274.347656 324.226562 284.59375 334.652344 274.242188 345.234375 C 274.066406 345.410156 272.027344 347.34375 270.542969 348.753906 L 269.070312 350.148438 C 261.511719 357.414062 251.398438 360.019531 242.097656 360.019531" style="fill: inherit;"></path><path d="M 301.085938 318.605469 C 299.609375 318.605469 298.195312 317.765625 297.535156 316.339844 C 296.636719 314.382812 297.488281 312.0625 299.445312 311.15625 C 336.953125 293.855469 361.191406 255.996094 361.191406 214.707031 C 361.191406 156.171875 313.566406 108.550781 255.03125 108.550781 C 207.050781 108.550781 164.878906 140.882812 152.480469 187.171875 C 151.925781 189.253906 149.796875 190.492188 147.699219 189.929688 C 145.617188 189.375 144.378906 187.230469 144.9375 185.148438 C 158.246094 135.449219 203.519531 100.742188 255.03125 100.742188 C 317.875 100.742188 369 151.867188 369 214.707031 C 369 259.03125 342.984375 299.675781 302.71875 318.25 C 302.1875 318.492188 301.632812 318.605469 301.085938 318.605469" style="fill: inherit;"></path><path d="M 296.644531 295.949219 L 310.179688 331.40625 L 285.691406 320.445312 Z M 296.644531 295.949219" style="fill: inherit;"></path><path d="M 208.699219 258.089844 C 207.382812 258.089844 206.304688 257.027344 206.28125 255.710938 C 206.257812 254.394531 206.230469 253.230469 206.210938 252.210938 C 206.171875 250.617188 206.152344 248.917969 206.152344 247.117188 C 206.152344 245.316406 206.171875 242.921875 206.210938 239.917969 C 206.398438 233.726562 207.898438 228.496094 210.710938 224.21875 C 213.527344 219.941406 217.667969 216.320312 223.144531 213.359375 L 230.628906 209.308594 C 233.257812 207.882812 234.933594 206.167969 235.664062 204.160156 C 236.394531 202.15625 236.816406 200.269531 236.933594 198.507812 C 237.082031 196.480469 237.164062 194.285156 237.183594 191.925781 C 237.203125 189.558594 237.15625 187.347656 237.042969 185.285156 C 236.777344 181.230469 234.0625 179.207031 228.882812 179.207031 C 226.261719 179.207031 224.363281 179.730469 223.203125 180.78125 C 222.039062 181.832031 221.421875 183.199219 221.34375 184.890625 C 221.269531 187.8125 221.214844 190.535156 221.175781 193.050781 C 221.148438 194.824219 221.179688 196.710938 221.265625 198.710938 C 221.324219 200.09375 220.238281 201.261719 218.851562 201.261719 L 208.757812 201.261719 C 207.460938 201.261719 206.386719 200.210938 206.335938 198.914062 C 206.273438 197.261719 206.222656 195.671875 206.179688 194.144531 C 206.125 191.914062 206.136719 189.820312 206.210938 187.871094 C 206.511719 180.40625 208.429688 175.0625 211.980469 171.835938 C 215.523438 168.609375 221.15625 166.996094 228.882812 166.996094 C 237.0625 166.996094 242.902344 168.609375 246.410156 171.835938 C 249.917969 175.0625 251.820312 180.40625 252.125 187.871094 C 252.273438 191.621094 252.273438 195.167969 252.125 198.507812 C 251.898438 204.507812 250.359375 209.339844 247.511719 212.992188 C 244.65625 216.652344 240.941406 219.734375 236.367188 222.246094 L 228.671875 226.429688 C 225.910156 227.929688 223.679688 230.347656 222.691406 233.332031 C 221.90625 235.710938 221.515625 237.90625 221.515625 239.917969 L 221.515625 244.980469 L 248.636719 244.980469 C 249.972656 244.980469 251.054688 246.0625 251.054688 247.398438 L 251.054688 255.671875 C 251.054688 257.007812 249.972656 258.089844 248.636719 258.089844 L 208.699219 258.089844" style="fill: inherit;"></path><path d="M 282.679688 221.402344 L 272.257812 221.402344 C 271.574219 221.402344 271.09375 220.730469 271.316406 220.085938 L 278.289062 199.910156 L 284.136719 181.175781 L 285.75 181.175781 L 284.734375 219.402344 C 284.707031 220.515625 283.796875 221.402344 282.679688 221.402344 Z M 297.753906 220.664062 L 297.753906 170.484375 C 297.753906 169.148438 296.671875 168.0625 295.335938 168.0625 L 279.261719 168.0625 C 278.265625 168.0625 277.375 168.671875 277.011719 169.597656 L 256.511719 221.65625 C 256.398438 221.9375 256.34375 222.238281 256.34375 222.539062 L 256.34375 231.980469 C 256.34375 233.316406 257.425781 234.402344 258.761719 234.402344 L 281.15625 234.402344 C 282.492188 234.402344 283.578125 235.484375 283.578125 236.820312 L 283.578125 255.671875 C 283.578125 257.007812 284.660156 258.089844 285.996094 258.089844 L 295.335938 258.089844 C 296.671875 258.089844 297.753906 257.007812 297.753906 255.671875 L 297.753906 236.820312 C 297.753906 235.484375 298.839844 234.402344 300.175781 234.402344 L 305.238281 234.402344 C 306.574219 234.402344 307.65625 233.316406 307.65625 231.980469 L 307.65625 223.824219 C 307.65625 222.488281 306.574219 221.402344 305.238281 221.402344 L 298.496094 221.402344 C 298.085938 221.402344 297.753906 221.070312 297.753906 220.664062" style="fill: inherit;"></path><path d="M 256.902344 122.523438 C 256.902344 119.945312 254.8125 117.859375 252.234375 117.859375 C 249.65625 117.859375 247.570312 119.945312 247.570312 122.523438 C 247.570312 125.101562 249.65625 127.191406 252.234375 127.191406 C 254.8125 127.191406 256.902344 125.101562 256.902344 122.523438" style="fill: inherit;"></path><path d="M 353.75 209.527344 C 353.75 206.953125 351.660156 204.863281 349.082031 204.863281 C 346.507812 204.863281 344.417969 206.953125 344.417969 209.527344 C 344.417969 212.105469 346.507812 214.195312 349.082031 214.195312 C 351.660156 214.195312 353.75 212.105469 353.75 209.527344" style="fill: inherit;"></path></g></svg>